<mxfile host="app.diagrams.net" agent="Mozilla/5.0 (Macintosh; Intel Mac OS X 10_15_7) AppleWebKit/537.36 (KHTML, like Gecko) Chrome/125.0.0.0 Safari/537.36" version="24.7.10" pages="6">
  <diagram name="during" id="qOw1ZXR3t3MQnUwOJxk2">
    <mxGraphModel grid="0" page="0" gridSize="10" guides="1" tooltips="1" connect="1" arrows="1" fold="1" pageScale="1" pageWidth="1200" pageHeight="1920" math="0" shadow="0">
      <root>
        <mxCell id="0" />
        <mxCell id="1" parent="0" />
        <mxCell id="Nyf4O35X3xmFkkIy3Yl4-6" style="edgeStyle=orthogonalEdgeStyle;rounded=0;orthogonalLoop=1;jettySize=auto;html=1;entryX=0;entryY=0.5;entryDx=0;entryDy=0;endArrow=block;endFill=1;" parent="1" source="Nyf4O35X3xmFkkIy3Yl4-1" target="Nyf4O35X3xmFkkIy3Yl4-2" edge="1">
          <mxGeometry relative="1" as="geometry" />
        </mxCell>
        <mxCell id="Nyf4O35X3xmFkkIy3Yl4-10" value="a" style="edgeLabel;html=1;align=center;verticalAlign=middle;resizable=0;points=[];" parent="Nyf4O35X3xmFkkIy3Yl4-6" vertex="1" connectable="0">
          <mxGeometry x="0.1953" y="-3" relative="1" as="geometry">
            <mxPoint x="1" y="-11" as="offset" />
          </mxGeometry>
        </mxCell>
        <mxCell id="Nyf4O35X3xmFkkIy3Yl4-1" value="" style="ellipse;whiteSpace=wrap;html=1;aspect=fixed;" parent="1" vertex="1">
          <mxGeometry x="200" y="250" width="40" height="40" as="geometry" />
        </mxCell>
        <mxCell id="Nyf4O35X3xmFkkIy3Yl4-7" style="edgeStyle=orthogonalEdgeStyle;rounded=0;orthogonalLoop=1;jettySize=auto;html=1;entryX=0;entryY=0.5;entryDx=0;entryDy=0;endArrow=block;endFill=1;" parent="1" source="Nyf4O35X3xmFkkIy3Yl4-2" target="Nyf4O35X3xmFkkIy3Yl4-3" edge="1">
          <mxGeometry relative="1" as="geometry" />
        </mxCell>
        <mxCell id="Nyf4O35X3xmFkkIy3Yl4-11" value="b" style="edgeLabel;html=1;align=center;verticalAlign=middle;resizable=0;points=[];" parent="Nyf4O35X3xmFkkIy3Yl4-7" vertex="1" connectable="0">
          <mxGeometry x="0.1953" y="1" relative="1" as="geometry">
            <mxPoint x="2" y="-7" as="offset" />
          </mxGeometry>
        </mxCell>
        <mxCell id="Nyf4O35X3xmFkkIy3Yl4-2" value="A" style="ellipse;whiteSpace=wrap;html=1;aspect=fixed;" parent="1" vertex="1">
          <mxGeometry x="270" y="250" width="40" height="40" as="geometry" />
        </mxCell>
        <mxCell id="Nyf4O35X3xmFkkIy3Yl4-8" style="edgeStyle=orthogonalEdgeStyle;rounded=0;orthogonalLoop=1;jettySize=auto;html=1;entryX=0;entryY=0.5;entryDx=0;entryDy=0;endArrow=block;endFill=1;" parent="1" source="Nyf4O35X3xmFkkIy3Yl4-3" target="Nyf4O35X3xmFkkIy3Yl4-4" edge="1">
          <mxGeometry relative="1" as="geometry">
            <mxPoint x="400.7058823529412" y="270" as="targetPoint" />
          </mxGeometry>
        </mxCell>
        <mxCell id="Nyf4O35X3xmFkkIy3Yl4-12" value="a" style="edgeLabel;html=1;align=center;verticalAlign=middle;resizable=0;points=[];" parent="Nyf4O35X3xmFkkIy3Yl4-8" vertex="1" connectable="0">
          <mxGeometry x="-0.4306" y="1" relative="1" as="geometry">
            <mxPoint x="-2" y="-7" as="offset" />
          </mxGeometry>
        </mxCell>
        <mxCell id="Nyf4O35X3xmFkkIy3Yl4-3" value="B" style="ellipse;whiteSpace=wrap;html=1;aspect=fixed;" parent="1" vertex="1">
          <mxGeometry x="340" y="250" width="40" height="40" as="geometry" />
        </mxCell>
        <mxCell id="Nyf4O35X3xmFkkIy3Yl4-4" value="" style="ellipse;whiteSpace=wrap;html=1;aspect=fixed;" parent="1" vertex="1">
          <mxGeometry x="410" y="250" width="40" height="40" as="geometry" />
        </mxCell>
        <mxCell id="Nyf4O35X3xmFkkIy3Yl4-5" value="" style="ellipse;whiteSpace=wrap;html=1;aspect=fixed;" parent="1" vertex="1">
          <mxGeometry x="415" y="255" width="30" height="30" as="geometry" />
        </mxCell>
        <mxCell id="Nyf4O35X3xmFkkIy3Yl4-13" style="edgeStyle=orthogonalEdgeStyle;rounded=0;orthogonalLoop=1;jettySize=auto;html=1;exitX=0;exitY=0;exitDx=0;exitDy=0;entryX=1;entryY=0;entryDx=0;entryDy=0;curved=1;endArrow=block;endFill=1;" parent="1" source="Nyf4O35X3xmFkkIy3Yl4-2" target="Nyf4O35X3xmFkkIy3Yl4-2" edge="1">
          <mxGeometry relative="1" as="geometry">
            <Array as="points">
              <mxPoint x="276" y="235" />
              <mxPoint x="304" y="235" />
            </Array>
          </mxGeometry>
        </mxCell>
        <mxCell id="Nyf4O35X3xmFkkIy3Yl4-14" value="a" style="edgeLabel;html=1;align=center;verticalAlign=middle;resizable=0;points=[];" parent="Nyf4O35X3xmFkkIy3Yl4-13" vertex="1" connectable="0">
          <mxGeometry x="0.0196" relative="1" as="geometry">
            <mxPoint y="-8" as="offset" />
          </mxGeometry>
        </mxCell>
        <mxCell id="Nyf4O35X3xmFkkIy3Yl4-15" style="edgeStyle=orthogonalEdgeStyle;rounded=0;orthogonalLoop=1;jettySize=auto;html=1;exitX=0;exitY=0;exitDx=0;exitDy=0;entryX=1;entryY=0;entryDx=0;entryDy=0;curved=1;endArrow=block;endFill=1;" parent="1" source="Nyf4O35X3xmFkkIy3Yl4-3" target="Nyf4O35X3xmFkkIy3Yl4-3" edge="1">
          <mxGeometry relative="1" as="geometry">
            <Array as="points">
              <mxPoint x="346" y="235" />
              <mxPoint x="374" y="235" />
            </Array>
          </mxGeometry>
        </mxCell>
        <mxCell id="Nyf4O35X3xmFkkIy3Yl4-16" value="b" style="edgeLabel;html=1;align=center;verticalAlign=middle;resizable=0;points=[];" parent="Nyf4O35X3xmFkkIy3Yl4-15" vertex="1" connectable="0">
          <mxGeometry x="0.0017" relative="1" as="geometry">
            <mxPoint y="-8" as="offset" />
          </mxGeometry>
        </mxCell>
        <mxCell id="Nyf4O35X3xmFkkIy3Yl4-17" style="edgeStyle=orthogonalEdgeStyle;rounded=0;orthogonalLoop=1;jettySize=auto;html=1;exitX=0;exitY=1;exitDx=0;exitDy=0;entryX=1;entryY=1;entryDx=0;entryDy=0;curved=1;endArrow=block;endFill=1;" parent="1" source="Nyf4O35X3xmFkkIy3Yl4-3" target="Nyf4O35X3xmFkkIy3Yl4-3" edge="1">
          <mxGeometry relative="1" as="geometry">
            <Array as="points">
              <mxPoint x="346" y="305" />
              <mxPoint x="374" y="305" />
            </Array>
          </mxGeometry>
        </mxCell>
        <mxCell id="Nyf4O35X3xmFkkIy3Yl4-18" value="a" style="edgeLabel;html=1;align=center;verticalAlign=middle;resizable=0;points=[];" parent="Nyf4O35X3xmFkkIy3Yl4-17" vertex="1" connectable="0">
          <mxGeometry x="0.1363" relative="1" as="geometry">
            <mxPoint x="-5" y="8" as="offset" />
          </mxGeometry>
        </mxCell>
      </root>
    </mxGraphModel>
  </diagram>
  <diagram id="4gn5xK_iAVZy0JXRVOCh" name="during allen">
    <mxGraphModel dx="1238" dy="621" grid="0" gridSize="10" guides="1" tooltips="1" connect="1" arrows="1" fold="1" page="0" pageScale="1" pageWidth="1200" pageHeight="1920" math="0" shadow="0">
      <root>
        <mxCell id="0" />
        <mxCell id="1" parent="0" />
        <mxCell id="z6SJ-vJWT0x3Y0AcNq8j-2" value="E&lt;sub&gt;b&lt;/sub&gt;" style="rounded=0;whiteSpace=wrap;html=1;" parent="1" vertex="1">
          <mxGeometry y="120" width="80" height="30" as="geometry" />
        </mxCell>
        <mxCell id="z6SJ-vJWT0x3Y0AcNq8j-3" value="E&lt;sub&gt;a&lt;/sub&gt;" style="rounded=0;whiteSpace=wrap;html=1;" parent="1" vertex="1">
          <mxGeometry x="-20" y="163" width="120" height="30" as="geometry" />
        </mxCell>
      </root>
    </mxGraphModel>
  </diagram>
  <diagram id="GVB3HQ6IxlCHtc6O38rV" name="overlap">
    <mxGraphModel grid="0" page="0" gridSize="10" guides="1" tooltips="1" connect="1" arrows="1" fold="1" pageScale="1" pageWidth="1200" pageHeight="1920" math="0" shadow="0">
      <root>
        <mxCell id="0" />
        <mxCell id="1" parent="0" />
        <mxCell id="sY84-_UBPBlpAHBU8N5W-1" style="edgeStyle=orthogonalEdgeStyle;rounded=0;orthogonalLoop=1;jettySize=auto;html=1;entryX=0;entryY=0.5;entryDx=0;entryDy=0;endArrow=block;endFill=1;" parent="1" source="sY84-_UBPBlpAHBU8N5W-3" target="sY84-_UBPBlpAHBU8N5W-6" edge="1">
          <mxGeometry relative="1" as="geometry" />
        </mxCell>
        <mxCell id="sY84-_UBPBlpAHBU8N5W-2" value="a" style="edgeLabel;html=1;align=center;verticalAlign=middle;resizable=0;points=[];" parent="sY84-_UBPBlpAHBU8N5W-1" vertex="1" connectable="0">
          <mxGeometry x="0.1953" y="-3" relative="1" as="geometry">
            <mxPoint x="1" y="-11" as="offset" />
          </mxGeometry>
        </mxCell>
        <mxCell id="sY84-_UBPBlpAHBU8N5W-3" value="" style="ellipse;whiteSpace=wrap;html=1;aspect=fixed;" parent="1" vertex="1">
          <mxGeometry x="200" y="250" width="40" height="40" as="geometry" />
        </mxCell>
        <mxCell id="sY84-_UBPBlpAHBU8N5W-4" style="edgeStyle=orthogonalEdgeStyle;rounded=0;orthogonalLoop=1;jettySize=auto;html=1;entryX=0;entryY=0.5;entryDx=0;entryDy=0;endArrow=block;endFill=1;" parent="1" source="sY84-_UBPBlpAHBU8N5W-6" target="sY84-_UBPBlpAHBU8N5W-9" edge="1">
          <mxGeometry relative="1" as="geometry" />
        </mxCell>
        <mxCell id="sY84-_UBPBlpAHBU8N5W-5" value="b" style="edgeLabel;html=1;align=center;verticalAlign=middle;resizable=0;points=[];" parent="sY84-_UBPBlpAHBU8N5W-4" vertex="1" connectable="0">
          <mxGeometry x="0.1953" y="1" relative="1" as="geometry">
            <mxPoint x="2" y="-7" as="offset" />
          </mxGeometry>
        </mxCell>
        <mxCell id="sY84-_UBPBlpAHBU8N5W-6" value="A" style="ellipse;whiteSpace=wrap;html=1;aspect=fixed;" parent="1" vertex="1">
          <mxGeometry x="270" y="250" width="40" height="40" as="geometry" />
        </mxCell>
        <mxCell id="sY84-_UBPBlpAHBU8N5W-7" style="edgeStyle=orthogonalEdgeStyle;rounded=0;orthogonalLoop=1;jettySize=auto;html=1;entryX=0;entryY=0.5;entryDx=0;entryDy=0;endArrow=block;endFill=1;" parent="1" source="sY84-_UBPBlpAHBU8N5W-9" target="sY84-_UBPBlpAHBU8N5W-10" edge="1">
          <mxGeometry relative="1" as="geometry">
            <mxPoint x="400.7058823529412" y="270" as="targetPoint" />
          </mxGeometry>
        </mxCell>
        <mxCell id="sY84-_UBPBlpAHBU8N5W-8" value="b" style="edgeLabel;html=1;align=center;verticalAlign=middle;resizable=0;points=[];" parent="sY84-_UBPBlpAHBU8N5W-7" vertex="1" connectable="0">
          <mxGeometry x="-0.4306" y="1" relative="1" as="geometry">
            <mxPoint x="-2" y="-7" as="offset" />
          </mxGeometry>
        </mxCell>
        <mxCell id="sY84-_UBPBlpAHBU8N5W-9" value="B" style="ellipse;whiteSpace=wrap;html=1;aspect=fixed;" parent="1" vertex="1">
          <mxGeometry x="340" y="250" width="40" height="40" as="geometry" />
        </mxCell>
        <mxCell id="sY84-_UBPBlpAHBU8N5W-10" value="" style="ellipse;whiteSpace=wrap;html=1;aspect=fixed;" parent="1" vertex="1">
          <mxGeometry x="410" y="250" width="40" height="40" as="geometry" />
        </mxCell>
        <mxCell id="sY84-_UBPBlpAHBU8N5W-11" value="" style="ellipse;whiteSpace=wrap;html=1;aspect=fixed;" parent="1" vertex="1">
          <mxGeometry x="415" y="255" width="30" height="30" as="geometry" />
        </mxCell>
        <mxCell id="sY84-_UBPBlpAHBU8N5W-12" style="edgeStyle=orthogonalEdgeStyle;rounded=0;orthogonalLoop=1;jettySize=auto;html=1;exitX=0;exitY=0;exitDx=0;exitDy=0;entryX=1;entryY=0;entryDx=0;entryDy=0;curved=1;endArrow=block;endFill=1;" parent="1" source="sY84-_UBPBlpAHBU8N5W-6" target="sY84-_UBPBlpAHBU8N5W-6" edge="1">
          <mxGeometry relative="1" as="geometry">
            <Array as="points">
              <mxPoint x="276" y="235" />
              <mxPoint x="304" y="235" />
            </Array>
          </mxGeometry>
        </mxCell>
        <mxCell id="sY84-_UBPBlpAHBU8N5W-13" value="a" style="edgeLabel;html=1;align=center;verticalAlign=middle;resizable=0;points=[];" parent="sY84-_UBPBlpAHBU8N5W-12" vertex="1" connectable="0">
          <mxGeometry x="0.0196" relative="1" as="geometry">
            <mxPoint y="-8" as="offset" />
          </mxGeometry>
        </mxCell>
        <mxCell id="sY84-_UBPBlpAHBU8N5W-14" style="edgeStyle=orthogonalEdgeStyle;rounded=0;orthogonalLoop=1;jettySize=auto;html=1;exitX=0;exitY=0;exitDx=0;exitDy=0;entryX=1;entryY=0;entryDx=0;entryDy=0;curved=1;endArrow=block;endFill=1;" parent="1" source="sY84-_UBPBlpAHBU8N5W-9" target="sY84-_UBPBlpAHBU8N5W-9" edge="1">
          <mxGeometry relative="1" as="geometry">
            <Array as="points">
              <mxPoint x="346" y="235" />
              <mxPoint x="374" y="235" />
            </Array>
          </mxGeometry>
        </mxCell>
        <mxCell id="sY84-_UBPBlpAHBU8N5W-15" value="b" style="edgeLabel;html=1;align=center;verticalAlign=middle;resizable=0;points=[];" parent="sY84-_UBPBlpAHBU8N5W-14" vertex="1" connectable="0">
          <mxGeometry x="0.0017" relative="1" as="geometry">
            <mxPoint y="-8" as="offset" />
          </mxGeometry>
        </mxCell>
        <mxCell id="sY84-_UBPBlpAHBU8N5W-16" style="edgeStyle=orthogonalEdgeStyle;rounded=0;orthogonalLoop=1;jettySize=auto;html=1;exitX=0;exitY=1;exitDx=0;exitDy=0;entryX=1;entryY=1;entryDx=0;entryDy=0;curved=1;endArrow=block;endFill=1;" parent="1" source="sY84-_UBPBlpAHBU8N5W-9" target="sY84-_UBPBlpAHBU8N5W-9" edge="1">
          <mxGeometry relative="1" as="geometry">
            <Array as="points">
              <mxPoint x="346" y="305" />
              <mxPoint x="374" y="305" />
            </Array>
          </mxGeometry>
        </mxCell>
        <mxCell id="sY84-_UBPBlpAHBU8N5W-17" value="a" style="edgeLabel;html=1;align=center;verticalAlign=middle;resizable=0;points=[];" parent="sY84-_UBPBlpAHBU8N5W-16" vertex="1" connectable="0">
          <mxGeometry x="0.1363" relative="1" as="geometry">
            <mxPoint x="-5" y="8" as="offset" />
          </mxGeometry>
        </mxCell>
      </root>
    </mxGraphModel>
  </diagram>
  <diagram id="BhKWzOchdH51UOfVdqcQ" name="interval event">
    <mxGraphModel grid="0" page="0" gridSize="10" guides="1" tooltips="1" connect="1" arrows="1" fold="1" pageScale="1" pageWidth="1200" pageHeight="1920" math="0" shadow="0">
      <root>
        <mxCell id="0" />
        <mxCell id="1" parent="0" />
        <mxCell id="v737-FCXfeVVerKfwc_J-6" value="a[1]" style="ellipse;whiteSpace=wrap;html=1;aspect=fixed;" parent="1" vertex="1">
          <mxGeometry x="385" y="250" width="40" height="40" as="geometry" />
        </mxCell>
        <mxCell id="v737-FCXfeVVerKfwc_J-7" style="edgeStyle=orthogonalEdgeStyle;rounded=0;orthogonalLoop=1;jettySize=auto;html=1;entryX=0;entryY=0.5;entryDx=0;entryDy=0;exitX=1;exitY=0.5;exitDx=0;exitDy=0;endArrow=block;endFill=1;" parent="1" source="v737-FCXfeVVerKfwc_J-6" target="v737-FCXfeVVerKfwc_J-10" edge="1">
          <mxGeometry relative="1" as="geometry">
            <mxPoint x="475.7058823529412" y="270" as="targetPoint" />
            <mxPoint x="454" y="270" as="sourcePoint" />
          </mxGeometry>
        </mxCell>
        <mxCell id="v737-FCXfeVVerKfwc_J-8" value="begin" style="edgeLabel;html=1;align=center;verticalAlign=middle;resizable=0;points=[];" parent="v737-FCXfeVVerKfwc_J-7" vertex="1" connectable="0">
          <mxGeometry x="-0.4306" y="1" relative="1" as="geometry">
            <mxPoint x="6" y="-11" as="offset" />
          </mxGeometry>
        </mxCell>
        <mxCell id="v737-FCXfeVVerKfwc_J-10" value="a[i]" style="ellipse;whiteSpace=wrap;html=1;aspect=fixed;" parent="1" vertex="1">
          <mxGeometry x="485" y="250" width="40" height="40" as="geometry" />
        </mxCell>
        <mxCell id="9SY6Bb9zrc9b-Eulx8Y6-1" style="edgeStyle=orthogonalEdgeStyle;rounded=0;orthogonalLoop=1;jettySize=auto;html=1;entryX=0;entryY=0.5;entryDx=0;entryDy=0;endArrow=diamond;endFill=0;dashed=1;" parent="1" target="9SY6Bb9zrc9b-Eulx8Y6-3" edge="1">
          <mxGeometry relative="1" as="geometry">
            <mxPoint x="545.7058823529412" y="270" as="targetPoint" />
            <mxPoint x="525" y="270" as="sourcePoint" />
          </mxGeometry>
        </mxCell>
        <mxCell id="9SY6Bb9zrc9b-Eulx8Y6-15" value="proceed" style="edgeLabel;html=1;align=center;verticalAlign=middle;resizable=0;points=[];" parent="9SY6Bb9zrc9b-Eulx8Y6-1" vertex="1" connectable="0">
          <mxGeometry x="-0.2632" relative="1" as="geometry">
            <mxPoint x="4" y="-12" as="offset" />
          </mxGeometry>
        </mxCell>
        <mxCell id="9SY6Bb9zrc9b-Eulx8Y6-3" value="" style="ellipse;whiteSpace=wrap;html=1;aspect=fixed;" parent="1" vertex="1">
          <mxGeometry x="585" y="250" width="40" height="40" as="geometry" />
        </mxCell>
        <mxCell id="9SY6Bb9zrc9b-Eulx8Y6-4" value="F" style="ellipse;whiteSpace=wrap;html=1;aspect=fixed;" parent="1" vertex="1">
          <mxGeometry x="590" y="255" width="30" height="30" as="geometry" />
        </mxCell>
        <mxCell id="9SY6Bb9zrc9b-Eulx8Y6-11" style="edgeStyle=orthogonalEdgeStyle;rounded=0;orthogonalLoop=1;jettySize=auto;html=1;exitX=1;exitY=0;exitDx=0;exitDy=0;entryX=0;entryY=0;entryDx=0;entryDy=0;curved=1;dashed=1;endArrow=block;endFill=1;" parent="1" source="v737-FCXfeVVerKfwc_J-10" target="v737-FCXfeVVerKfwc_J-10" edge="1">
          <mxGeometry relative="1" as="geometry">
            <Array as="points">
              <mxPoint x="519" y="238" />
              <mxPoint x="491" y="238" />
            </Array>
          </mxGeometry>
        </mxCell>
        <mxCell id="9SY6Bb9zrc9b-Eulx8Y6-12" value="ignore" style="text;html=1;align=center;verticalAlign=middle;resizable=0;points=[];autosize=1;strokeColor=none;fillColor=none;" parent="1" vertex="1">
          <mxGeometry x="479.5" y="216" width="51" height="26" as="geometry" />
        </mxCell>
        <mxCell id="9SY6Bb9zrc9b-Eulx8Y6-13" style="edgeStyle=orthogonalEdgeStyle;rounded=0;orthogonalLoop=1;jettySize=auto;html=1;exitX=0;exitY=1;exitDx=0;exitDy=0;entryX=1;entryY=1;entryDx=0;entryDy=0;curved=1;endArrow=block;endFill=1;" parent="1" source="v737-FCXfeVVerKfwc_J-10" target="v737-FCXfeVVerKfwc_J-10" edge="1">
          <mxGeometry relative="1" as="geometry">
            <Array as="points">
              <mxPoint x="491" y="301" />
              <mxPoint x="519" y="301" />
            </Array>
          </mxGeometry>
        </mxCell>
        <mxCell id="9SY6Bb9zrc9b-Eulx8Y6-14" value="take" style="edgeLabel;html=1;align=center;verticalAlign=middle;resizable=0;points=[];" parent="9SY6Bb9zrc9b-Eulx8Y6-13" vertex="1" connectable="0">
          <mxGeometry x="0.1128" relative="1" as="geometry">
            <mxPoint x="-3" y="7" as="offset" />
          </mxGeometry>
        </mxCell>
        <mxCell id="Rj-uVgJ-u6tC2z8mf8Q8-3" style="edgeStyle=orthogonalEdgeStyle;rounded=0;orthogonalLoop=1;jettySize=auto;html=1;entryX=0;entryY=0.5;entryDx=0;entryDy=0;endArrow=block;endFill=1;" parent="1" edge="1">
          <mxGeometry relative="1" as="geometry">
            <mxPoint x="385" y="269.77" as="targetPoint" />
            <mxPoint x="370" y="270" as="sourcePoint" />
          </mxGeometry>
        </mxCell>
      </root>
    </mxGraphModel>
  </diagram>
  <diagram id="hRgOw6mG6c-1pY6ZXyZu" name="coldwave">
    <mxGraphModel dx="1194" dy="460" grid="0" gridSize="10" guides="1" tooltips="1" connect="1" arrows="1" fold="1" page="0" pageScale="1" pageWidth="1200" pageHeight="1920" math="1" shadow="0">
      <root>
        <mxCell id="0" />
        <mxCell id="1" parent="0" />
        <mxCell id="evptkVJbyycAW9z-6wrN-1" style="edgeStyle=orthogonalEdgeStyle;rounded=0;orthogonalLoop=1;jettySize=auto;html=1;entryX=0;entryY=0.5;entryDx=0;entryDy=0;endArrow=block;endFill=1;" parent="1" source="evptkVJbyycAW9z-6wrN-3" target="evptkVJbyycAW9z-6wrN-6" edge="1">
          <mxGeometry relative="1" as="geometry" />
        </mxCell>
        <mxCell id="Ko6GrH3AQ_hQtaz_Mjk5-8" style="edgeStyle=orthogonalEdgeStyle;rounded=0;orthogonalLoop=1;jettySize=auto;html=1;exitX=1;exitY=1;exitDx=0;exitDy=0;entryX=0;entryY=1;entryDx=0;entryDy=0;curved=1;endArrow=block;endFill=1;" parent="1" source="evptkVJbyycAW9z-6wrN-3" target="evptkVJbyycAW9z-6wrN-9" edge="1">
          <mxGeometry relative="1" as="geometry">
            <Array as="points">
              <mxPoint x="14" y="153" />
              <mxPoint x="126" y="153" />
            </Array>
          </mxGeometry>
        </mxCell>
        <mxCell id="evptkVJbyycAW9z-6wrN-3" value="" style="ellipse;whiteSpace=wrap;html=1;aspect=fixed;" parent="1" vertex="1">
          <mxGeometry x="-20" y="103" width="40" height="40" as="geometry" />
        </mxCell>
        <mxCell id="evptkVJbyycAW9z-6wrN-4" style="edgeStyle=orthogonalEdgeStyle;rounded=0;orthogonalLoop=1;jettySize=auto;html=1;entryX=0;entryY=0.5;entryDx=0;entryDy=0;endArrow=block;endFill=1;" parent="1" source="evptkVJbyycAW9z-6wrN-6" target="evptkVJbyycAW9z-6wrN-9" edge="1">
          <mxGeometry relative="1" as="geometry" />
        </mxCell>
        <mxCell id="evptkVJbyycAW9z-6wrN-6" value="A" style="ellipse;whiteSpace=wrap;html=1;aspect=fixed;" parent="1" vertex="1">
          <mxGeometry x="50" y="103" width="40" height="40" as="geometry" />
        </mxCell>
        <mxCell id="evptkVJbyycAW9z-6wrN-7" style="edgeStyle=orthogonalEdgeStyle;rounded=0;orthogonalLoop=1;jettySize=auto;html=1;endArrow=block;endFill=1;" parent="1" source="evptkVJbyycAW9z-6wrN-9" target="evptkVJbyycAW9z-6wrN-20" edge="1">
          <mxGeometry relative="1" as="geometry">
            <mxPoint x="180.70588235294122" y="123" as="targetPoint" />
          </mxGeometry>
        </mxCell>
        <mxCell id="evptkVJbyycAW9z-6wrN-9" value="B" style="ellipse;whiteSpace=wrap;html=1;aspect=fixed;" parent="1" vertex="1">
          <mxGeometry x="120" y="103" width="40" height="40" as="geometry" />
        </mxCell>
        <mxCell id="evptkVJbyycAW9z-6wrN-12" style="edgeStyle=orthogonalEdgeStyle;rounded=0;orthogonalLoop=1;jettySize=auto;html=1;exitX=0;exitY=0;exitDx=0;exitDy=0;entryX=1;entryY=0;entryDx=0;entryDy=0;curved=1;endArrow=block;endFill=1;" parent="1" source="evptkVJbyycAW9z-6wrN-6" target="evptkVJbyycAW9z-6wrN-6" edge="1">
          <mxGeometry relative="1" as="geometry">
            <Array as="points">
              <mxPoint x="56" y="88" />
              <mxPoint x="84" y="88" />
            </Array>
          </mxGeometry>
        </mxCell>
        <mxCell id="evptkVJbyycAW9z-6wrN-13" value="&lt;span style=&quot;font-size: 12px; text-wrap: wrap;&quot;&gt;`t_p`&lt;/span&gt;" style="edgeLabel;html=1;align=center;verticalAlign=middle;resizable=0;points=[];" parent="evptkVJbyycAW9z-6wrN-12" vertex="1" connectable="0">
          <mxGeometry x="0.0196" relative="1" as="geometry">
            <mxPoint x="1" y="-10" as="offset" />
          </mxGeometry>
        </mxCell>
        <mxCell id="evptkVJbyycAW9z-6wrN-14" style="edgeStyle=orthogonalEdgeStyle;rounded=0;orthogonalLoop=1;jettySize=auto;html=1;exitX=0;exitY=0;exitDx=0;exitDy=0;entryX=1;entryY=0;entryDx=0;entryDy=0;curved=1;endArrow=block;endFill=1;" parent="1" source="evptkVJbyycAW9z-6wrN-9" target="evptkVJbyycAW9z-6wrN-9" edge="1">
          <mxGeometry relative="1" as="geometry">
            <Array as="points">
              <mxPoint x="126" y="88" />
              <mxPoint x="154" y="88" />
            </Array>
          </mxGeometry>
        </mxCell>
        <mxCell id="evptkVJbyycAW9z-6wrN-15" value="&lt;span style=&quot;font-size: 12px; text-wrap: wrap;&quot;&gt;`t_p`&lt;/span&gt;" style="edgeLabel;html=1;align=center;verticalAlign=middle;resizable=0;points=[];" parent="evptkVJbyycAW9z-6wrN-14" vertex="1" connectable="0">
          <mxGeometry x="0.0017" relative="1" as="geometry">
            <mxPoint y="-10" as="offset" />
          </mxGeometry>
        </mxCell>
        <mxCell id="evptkVJbyycAW9z-6wrN-19" value="" style="group" parent="1" vertex="1" connectable="0">
          <mxGeometry x="260" y="103" width="40" height="40" as="geometry" />
        </mxCell>
        <mxCell id="evptkVJbyycAW9z-6wrN-10" value="" style="ellipse;whiteSpace=wrap;html=1;aspect=fixed;movable=1;resizable=1;rotatable=1;deletable=1;editable=1;locked=0;connectable=1;" parent="evptkVJbyycAW9z-6wrN-19" vertex="1">
          <mxGeometry width="40" height="40" as="geometry" />
        </mxCell>
        <mxCell id="evptkVJbyycAW9z-6wrN-11" value="" style="ellipse;whiteSpace=wrap;html=1;aspect=fixed;movable=0;resizable=0;rotatable=0;deletable=0;editable=0;locked=1;connectable=0;" parent="evptkVJbyycAW9z-6wrN-19" vertex="1">
          <mxGeometry x="5" y="5" width="30" height="30" as="geometry" />
        </mxCell>
        <mxCell id="evptkVJbyycAW9z-6wrN-21" style="edgeStyle=orthogonalEdgeStyle;rounded=0;orthogonalLoop=1;jettySize=auto;html=1;entryX=0;entryY=0.5;entryDx=0;entryDy=0;endArrow=block;endFill=1;" parent="1" source="evptkVJbyycAW9z-6wrN-20" target="evptkVJbyycAW9z-6wrN-10" edge="1">
          <mxGeometry relative="1" as="geometry" />
        </mxCell>
        <mxCell id="evptkVJbyycAW9z-6wrN-20" value="C" style="ellipse;whiteSpace=wrap;html=1;aspect=fixed;" parent="1" vertex="1">
          <mxGeometry x="190" y="103" width="40" height="40" as="geometry" />
        </mxCell>
        <mxCell id="evptkVJbyycAW9z-6wrN-22" style="edgeStyle=orthogonalEdgeStyle;rounded=0;orthogonalLoop=1;jettySize=auto;html=1;exitX=0;exitY=0;exitDx=0;exitDy=0;entryX=1;entryY=0;entryDx=0;entryDy=0;curved=1;endArrow=block;endFill=1;" parent="1" edge="1">
          <mxGeometry relative="1" as="geometry">
            <Array as="points">
              <mxPoint x="196" y="88" />
              <mxPoint x="224" y="88" />
            </Array>
            <mxPoint x="196" y="109" as="sourcePoint" />
            <mxPoint x="224" y="109" as="targetPoint" />
          </mxGeometry>
        </mxCell>
        <mxCell id="evptkVJbyycAW9z-6wrN-23" value="&lt;span style=&quot;font-size: 12px; text-wrap: wrap;&quot;&gt;`t_p`&lt;/span&gt;" style="edgeLabel;html=1;align=center;verticalAlign=middle;resizable=0;points=[];" parent="evptkVJbyycAW9z-6wrN-22" vertex="1" connectable="0">
          <mxGeometry x="0.0017" relative="1" as="geometry">
            <mxPoint y="-10" as="offset" />
          </mxGeometry>
        </mxCell>
        <mxCell id="Ko6GrH3AQ_hQtaz_Mjk5-1" value="`t_p`" style="text;html=1;align=center;verticalAlign=middle;whiteSpace=wrap;rounded=0;" parent="1" vertex="1">
          <mxGeometry x="3" y="100" width="60" height="30" as="geometry" />
        </mxCell>
        <mxCell id="Ko6GrH3AQ_hQtaz_Mjk5-2" value="`t_p`" style="text;html=1;align=center;verticalAlign=middle;whiteSpace=wrap;rounded=0;" parent="1" vertex="1">
          <mxGeometry x="74" y="100" width="60" height="30" as="geometry" />
        </mxCell>
        <mxCell id="Ko6GrH3AQ_hQtaz_Mjk5-3" value="`t_p`" style="text;html=1;align=center;verticalAlign=middle;whiteSpace=wrap;rounded=0;" parent="1" vertex="1">
          <mxGeometry x="143" y="100" width="60" height="30" as="geometry" />
        </mxCell>
        <mxCell id="Ko6GrH3AQ_hQtaz_Mjk5-7" value="&lt;span style=&quot;color: rgb(32, 33, 36); font-family: &amp;quot;Google Sans&amp;quot;, Arial, sans-serif; font-size: 11px; text-align: left;&quot;&gt;ε&lt;/span&gt;" style="text;html=1;align=center;verticalAlign=middle;whiteSpace=wrap;rounded=0;" parent="1" vertex="1">
          <mxGeometry x="213" y="100" width="60" height="30" as="geometry" />
        </mxCell>
        <mxCell id="Ko6GrH3AQ_hQtaz_Mjk5-11" value="`t_p`" style="text;html=1;align=center;verticalAlign=middle;whiteSpace=wrap;rounded=0;" parent="1" vertex="1">
          <mxGeometry x="42" y="133" width="60" height="30" as="geometry" />
        </mxCell>
      </root>
    </mxGraphModel>
  </diagram>
  <diagram id="INi5DH3jXzOYhkhlOejO" name="diff">
    <mxGraphModel dx="1037" dy="573" grid="0" gridSize="10" guides="1" tooltips="1" connect="1" arrows="1" fold="1" page="0" pageScale="1" pageWidth="1200" pageHeight="1920" math="1" shadow="0">
      <root>
        <mxCell id="0" />
        <mxCell id="1" parent="0" />
        <mxCell id="MdmzjUPKvgyS5_Bxqfo7-1" value="&lt;b&gt;(a) 基于窗口的DIFF事件检测过程&lt;/b&gt;" style="text;html=1;align=center;verticalAlign=middle;whiteSpace=wrap;rounded=0;" parent="1" vertex="1">
          <mxGeometry x="126" y="402.1" width="306" height="30" as="geometry" />
        </mxCell>
        <mxCell id="MdmzjUPKvgyS5_Bxqfo7-2" value="$${\scriptsize \begin{align}&amp;amp;PATTERN\ A^* \\&amp;amp;DEFINE\ A\ {\color[RGB]{0,0,245} AS}\&amp;nbsp; tstamp\ -\ first(A.tstamp)\ &amp;lt; \ \&amp;nbsp; &#39;5&#39;\ DAY \\&amp;amp; \ \ \ \&amp;nbsp; {\color[RGB]{0,0,245} AND} \ \&amp;nbsp; temp\ -\ first(A.temp)\ &amp;lt;\ -20 \end{align}}&amp;nbsp;$$" style="text;html=1;align=left;verticalAlign=middle;whiteSpace=wrap;rounded=0;strokeColor=default;" parent="1" vertex="1">
          <mxGeometry x="107.5" y="427" width="341.5" height="57" as="geometry" />
        </mxCell>
        <mxCell id="MdmzjUPKvgyS5_Bxqfo7-3" value="&lt;b&gt;(b) Pattern DIFF 的 SQL 格式表达&amp;nbsp;&lt;/b&gt;" style="text;html=1;align=center;verticalAlign=middle;whiteSpace=wrap;rounded=0;" parent="1" vertex="1">
          <mxGeometry x="170" y="484" width="218" height="30" as="geometry" />
        </mxCell>
        <mxCell id="MdmzjUPKvgyS5_Bxqfo7-4" value="&lt;b&gt;(d) 基于自动机的DIFF事件检测过程。简化表达`t_{pe}[i]`为`t_[i]`。NFA代表内存中所有状态机实例缓存的数据。&lt;/b&gt;" style="text;html=1;align=center;verticalAlign=middle;whiteSpace=wrap;rounded=0;" parent="1" vertex="1">
          <mxGeometry x="453.45" y="585.05" width="292" height="30" as="geometry" />
        </mxCell>
        <mxCell id="jrP5NYGC1qevKMbRuAi--1" style="edgeStyle=orthogonalEdgeStyle;rounded=0;orthogonalLoop=1;jettySize=auto;html=1;endArrow=diamondThin;endFill=0;exitX=1;exitY=0.5;exitDx=0;exitDy=0;dashed=1;entryX=0.059;entryY=0.504;entryDx=0;entryDy=0;entryPerimeter=0;" parent="1" source="QO13Kw1hg1u_ICl1bqHM-143" target="jrP5NYGC1qevKMbRuAi--5" edge="1">
          <mxGeometry relative="1" as="geometry">
            <mxPoint x="286.13" y="559.58" as="sourcePoint" />
            <mxPoint x="281.13001697888694" y="559.6060606060605" as="targetPoint" />
          </mxGeometry>
        </mxCell>
        <mxCell id="jrP5NYGC1qevKMbRuAi--5" value="" style="ellipse;whiteSpace=wrap;html=1;aspect=fixed;" parent="1" vertex="1">
          <mxGeometry x="289.13" y="539.58" width="40" height="40" as="geometry" />
        </mxCell>
        <mxCell id="jrP5NYGC1qevKMbRuAi--6" value="" style="ellipse;whiteSpace=wrap;html=1;aspect=fixed;" parent="1" vertex="1">
          <mxGeometry x="294.13" y="544.58" width="30" height="30" as="geometry" />
        </mxCell>
        <mxCell id="jrP5NYGC1qevKMbRuAi--9" value="&lt;b&gt;(c) Pattern DIFF 的自动机形式表达&lt;/b&gt;" style="text;html=1;align=center;verticalAlign=middle;whiteSpace=wrap;rounded=0;" parent="1" vertex="1">
          <mxGeometry x="172.13" y="585.0500000000001" width="218" height="30" as="geometry" />
        </mxCell>
        <mxCell id="QO13Kw1hg1u_ICl1bqHM-10" value="" style="shape=table;startSize=0;container=1;collapsible=0;childLayout=tableLayout;" parent="1" vertex="1">
          <mxGeometry x="109" y="226" width="340" height="176.0952380952371" as="geometry" />
        </mxCell>
        <mxCell id="QO13Kw1hg1u_ICl1bqHM-11" value="" style="shape=tableRow;horizontal=0;startSize=0;swimlaneHead=0;swimlaneBody=0;strokeColor=inherit;top=0;left=0;bottom=0;right=0;collapsible=0;dropTarget=0;fillColor=none;points=[[0,0.5],[1,0.5]];portConstraint=eastwest;" parent="QO13Kw1hg1u_ICl1bqHM-10" vertex="1">
          <mxGeometry width="340" height="32" as="geometry" />
        </mxCell>
        <mxCell id="QO13Kw1hg1u_ICl1bqHM-12" value="Event" style="shape=partialRectangle;html=1;whiteSpace=wrap;connectable=0;strokeColor=inherit;overflow=hidden;fillColor=none;top=0;left=0;bottom=0;right=0;pointerEvents=1;" parent="QO13Kw1hg1u_ICl1bqHM-11" vertex="1">
          <mxGeometry width="44" height="32" as="geometry">
            <mxRectangle width="44" height="32" as="alternateBounds" />
          </mxGeometry>
        </mxCell>
        <mxCell id="QO13Kw1hg1u_ICl1bqHM-13" value="$$t_{pe}[1]$$" style="shape=partialRectangle;html=1;whiteSpace=wrap;connectable=0;strokeColor=inherit;overflow=hidden;fillColor=none;top=0;left=0;bottom=0;right=0;pointerEvents=1;" parent="QO13Kw1hg1u_ICl1bqHM-11" vertex="1">
          <mxGeometry x="44" width="41" height="32" as="geometry">
            <mxRectangle width="41" height="32" as="alternateBounds" />
          </mxGeometry>
        </mxCell>
        <mxCell id="QO13Kw1hg1u_ICl1bqHM-14" value="$$t_{pe}[2]$$" style="shape=partialRectangle;html=1;whiteSpace=wrap;connectable=0;strokeColor=inherit;overflow=hidden;fillColor=none;top=0;left=0;bottom=0;right=0;pointerEvents=1;" parent="QO13Kw1hg1u_ICl1bqHM-11" vertex="1">
          <mxGeometry x="85" width="38" height="32" as="geometry">
            <mxRectangle width="38" height="32" as="alternateBounds" />
          </mxGeometry>
        </mxCell>
        <mxCell id="QO13Kw1hg1u_ICl1bqHM-15" value="$$t_{pe}[3]$$" style="shape=partialRectangle;html=1;whiteSpace=wrap;connectable=0;strokeColor=inherit;overflow=hidden;fillColor=none;top=0;left=0;bottom=0;right=0;pointerEvents=1;" parent="QO13Kw1hg1u_ICl1bqHM-11" vertex="1">
          <mxGeometry x="123" width="38" height="32" as="geometry">
            <mxRectangle width="38" height="32" as="alternateBounds" />
          </mxGeometry>
        </mxCell>
        <mxCell id="QO13Kw1hg1u_ICl1bqHM-16" value="$$t_{pe}[4]$$" style="shape=partialRectangle;html=1;whiteSpace=wrap;connectable=0;strokeColor=inherit;overflow=hidden;fillColor=none;top=0;left=0;bottom=0;right=0;pointerEvents=1;" parent="QO13Kw1hg1u_ICl1bqHM-11" vertex="1">
          <mxGeometry x="161" width="38" height="32" as="geometry">
            <mxRectangle width="38" height="32" as="alternateBounds" />
          </mxGeometry>
        </mxCell>
        <mxCell id="QO13Kw1hg1u_ICl1bqHM-17" value="$$t_{pe}[5]$$" style="shape=partialRectangle;html=1;whiteSpace=wrap;connectable=0;strokeColor=inherit;overflow=hidden;fillColor=none;top=0;left=0;bottom=0;right=0;pointerEvents=1;" parent="QO13Kw1hg1u_ICl1bqHM-11" vertex="1">
          <mxGeometry x="199" width="47" height="32" as="geometry">
            <mxRectangle width="47" height="32" as="alternateBounds" />
          </mxGeometry>
        </mxCell>
        <mxCell id="QO13Kw1hg1u_ICl1bqHM-18" value="$$t_{pe}[6]$$" style="shape=partialRectangle;html=1;whiteSpace=wrap;connectable=0;strokeColor=inherit;overflow=hidden;fillColor=none;top=0;left=0;bottom=0;right=0;pointerEvents=1;" parent="QO13Kw1hg1u_ICl1bqHM-11" vertex="1">
          <mxGeometry x="246" width="47" height="32" as="geometry">
            <mxRectangle width="47" height="32" as="alternateBounds" />
          </mxGeometry>
        </mxCell>
        <mxCell id="QO13Kw1hg1u_ICl1bqHM-93" value="$$t_{pe}[7]$$" style="shape=partialRectangle;html=1;whiteSpace=wrap;connectable=0;strokeColor=inherit;overflow=hidden;fillColor=none;top=0;left=0;bottom=0;right=0;pointerEvents=1;" parent="QO13Kw1hg1u_ICl1bqHM-11" vertex="1">
          <mxGeometry x="293" width="47" height="32" as="geometry">
            <mxRectangle width="47" height="32" as="alternateBounds" />
          </mxGeometry>
        </mxCell>
        <mxCell id="QO13Kw1hg1u_ICl1bqHM-19" value="" style="shape=tableRow;horizontal=0;startSize=0;swimlaneHead=0;swimlaneBody=0;strokeColor=inherit;top=0;left=0;bottom=0;right=0;collapsible=0;dropTarget=0;fillColor=none;points=[[0,0.5],[1,0.5]];portConstraint=eastwest;" parent="QO13Kw1hg1u_ICl1bqHM-10" vertex="1">
          <mxGeometry y="32" width="340" height="33" as="geometry" />
        </mxCell>
        <mxCell id="QO13Kw1hg1u_ICl1bqHM-20" value="Time&lt;div&gt;stamp&lt;/div&gt;" style="shape=partialRectangle;html=1;whiteSpace=wrap;connectable=0;strokeColor=inherit;overflow=hidden;fillColor=none;top=0;left=0;bottom=0;right=0;pointerEvents=1;" parent="QO13Kw1hg1u_ICl1bqHM-19" vertex="1">
          <mxGeometry width="44" height="33" as="geometry">
            <mxRectangle width="44" height="33" as="alternateBounds" />
          </mxGeometry>
        </mxCell>
        <mxCell id="QO13Kw1hg1u_ICl1bqHM-21" value="$$Day_1$$" style="shape=partialRectangle;html=1;whiteSpace=wrap;connectable=0;strokeColor=inherit;overflow=hidden;fillColor=none;top=0;left=0;bottom=0;right=0;pointerEvents=1;" parent="QO13Kw1hg1u_ICl1bqHM-19" vertex="1">
          <mxGeometry x="44" width="41" height="33" as="geometry">
            <mxRectangle width="41" height="33" as="alternateBounds" />
          </mxGeometry>
        </mxCell>
        <mxCell id="QO13Kw1hg1u_ICl1bqHM-22" value="$$Day_2$$" style="shape=partialRectangle;html=1;whiteSpace=wrap;connectable=0;strokeColor=inherit;overflow=hidden;fillColor=none;top=0;left=0;bottom=0;right=0;pointerEvents=1;" parent="QO13Kw1hg1u_ICl1bqHM-19" vertex="1">
          <mxGeometry x="85" width="38" height="33" as="geometry">
            <mxRectangle width="38" height="33" as="alternateBounds" />
          </mxGeometry>
        </mxCell>
        <mxCell id="QO13Kw1hg1u_ICl1bqHM-23" value="$$Day_3$$" style="shape=partialRectangle;html=1;whiteSpace=wrap;connectable=0;strokeColor=inherit;overflow=hidden;fillColor=none;top=0;left=0;bottom=0;right=0;pointerEvents=1;" parent="QO13Kw1hg1u_ICl1bqHM-19" vertex="1">
          <mxGeometry x="123" width="38" height="33" as="geometry">
            <mxRectangle width="38" height="33" as="alternateBounds" />
          </mxGeometry>
        </mxCell>
        <mxCell id="QO13Kw1hg1u_ICl1bqHM-24" value="$$Day_4$$" style="shape=partialRectangle;html=1;whiteSpace=wrap;connectable=0;strokeColor=inherit;overflow=hidden;fillColor=none;top=0;left=0;bottom=0;right=0;pointerEvents=1;" parent="QO13Kw1hg1u_ICl1bqHM-19" vertex="1">
          <mxGeometry x="161" width="38" height="33" as="geometry">
            <mxRectangle width="38" height="33" as="alternateBounds" />
          </mxGeometry>
        </mxCell>
        <mxCell id="QO13Kw1hg1u_ICl1bqHM-25" value="$$Day_5$$" style="shape=partialRectangle;html=1;whiteSpace=wrap;connectable=0;strokeColor=inherit;overflow=hidden;fillColor=none;top=0;left=0;bottom=0;right=0;pointerEvents=1;" parent="QO13Kw1hg1u_ICl1bqHM-19" vertex="1">
          <mxGeometry x="199" width="47" height="33" as="geometry">
            <mxRectangle width="47" height="33" as="alternateBounds" />
          </mxGeometry>
        </mxCell>
        <mxCell id="QO13Kw1hg1u_ICl1bqHM-26" value="$$Day_6$$" style="shape=partialRectangle;html=1;whiteSpace=wrap;connectable=0;strokeColor=inherit;overflow=hidden;fillColor=none;top=0;left=0;bottom=0;right=0;pointerEvents=1;" parent="QO13Kw1hg1u_ICl1bqHM-19" vertex="1">
          <mxGeometry x="246" width="47" height="33" as="geometry">
            <mxRectangle width="47" height="33" as="alternateBounds" />
          </mxGeometry>
        </mxCell>
        <mxCell id="QO13Kw1hg1u_ICl1bqHM-94" value="$$Day_7$$" style="shape=partialRectangle;html=1;whiteSpace=wrap;connectable=0;strokeColor=inherit;overflow=hidden;fillColor=none;top=0;left=0;bottom=0;right=0;pointerEvents=1;" parent="QO13Kw1hg1u_ICl1bqHM-19" vertex="1">
          <mxGeometry x="293" width="47" height="33" as="geometry">
            <mxRectangle width="47" height="33" as="alternateBounds" />
          </mxGeometry>
        </mxCell>
        <mxCell id="QO13Kw1hg1u_ICl1bqHM-27" value="" style="shape=tableRow;horizontal=0;startSize=0;swimlaneHead=0;swimlaneBody=0;strokeColor=inherit;top=0;left=0;bottom=0;right=0;collapsible=0;dropTarget=0;fillColor=none;points=[[0,0.5],[1,0.5]];portConstraint=eastwest;" parent="QO13Kw1hg1u_ICl1bqHM-10" vertex="1">
          <mxGeometry y="65" width="340" height="30" as="geometry" />
        </mxCell>
        <mxCell id="QO13Kw1hg1u_ICl1bqHM-28" value="Val" style="shape=partialRectangle;html=1;whiteSpace=wrap;connectable=0;strokeColor=inherit;overflow=hidden;fillColor=none;top=0;left=0;bottom=0;right=0;pointerEvents=1;" parent="QO13Kw1hg1u_ICl1bqHM-27" vertex="1">
          <mxGeometry width="44" height="30" as="geometry">
            <mxRectangle width="44" height="30" as="alternateBounds" />
          </mxGeometry>
        </mxCell>
        <mxCell id="QO13Kw1hg1u_ICl1bqHM-29" value="$$20$$" style="shape=partialRectangle;html=1;whiteSpace=wrap;connectable=0;strokeColor=inherit;overflow=hidden;fillColor=none;top=0;left=0;bottom=0;right=0;pointerEvents=1;" parent="QO13Kw1hg1u_ICl1bqHM-27" vertex="1">
          <mxGeometry x="44" width="41" height="30" as="geometry">
            <mxRectangle width="41" height="30" as="alternateBounds" />
          </mxGeometry>
        </mxCell>
        <mxCell id="QO13Kw1hg1u_ICl1bqHM-30" value="$$32$$" style="shape=partialRectangle;html=1;whiteSpace=wrap;connectable=0;strokeColor=inherit;overflow=hidden;fillColor=none;top=0;left=0;bottom=0;right=0;pointerEvents=1;" parent="QO13Kw1hg1u_ICl1bqHM-27" vertex="1">
          <mxGeometry x="85" width="38" height="30" as="geometry">
            <mxRectangle width="38" height="30" as="alternateBounds" />
          </mxGeometry>
        </mxCell>
        <mxCell id="QO13Kw1hg1u_ICl1bqHM-31" value="$$26$$" style="shape=partialRectangle;html=1;whiteSpace=wrap;connectable=0;strokeColor=inherit;overflow=hidden;fillColor=none;top=0;left=0;bottom=0;right=0;pointerEvents=1;" parent="QO13Kw1hg1u_ICl1bqHM-27" vertex="1">
          <mxGeometry x="123" width="38" height="30" as="geometry">
            <mxRectangle width="38" height="30" as="alternateBounds" />
          </mxGeometry>
        </mxCell>
        <mxCell id="QO13Kw1hg1u_ICl1bqHM-32" value="$$28$$" style="shape=partialRectangle;html=1;whiteSpace=wrap;connectable=0;strokeColor=inherit;overflow=hidden;fillColor=none;top=0;left=0;bottom=0;right=0;pointerEvents=1;" parent="QO13Kw1hg1u_ICl1bqHM-27" vertex="1">
          <mxGeometry x="161" width="38" height="30" as="geometry">
            <mxRectangle width="38" height="30" as="alternateBounds" />
          </mxGeometry>
        </mxCell>
        <mxCell id="QO13Kw1hg1u_ICl1bqHM-33" value="$$10$$" style="shape=partialRectangle;html=1;whiteSpace=wrap;connectable=0;strokeColor=inherit;overflow=hidden;fillColor=none;top=0;left=0;bottom=0;right=0;pointerEvents=1;" parent="QO13Kw1hg1u_ICl1bqHM-27" vertex="1">
          <mxGeometry x="199" width="47" height="30" as="geometry">
            <mxRectangle width="47" height="30" as="alternateBounds" />
          </mxGeometry>
        </mxCell>
        <mxCell id="QO13Kw1hg1u_ICl1bqHM-34" value="$$11$$" style="shape=partialRectangle;html=1;whiteSpace=wrap;connectable=0;strokeColor=inherit;overflow=hidden;fillColor=none;top=0;left=0;bottom=0;right=0;pointerEvents=1;" parent="QO13Kw1hg1u_ICl1bqHM-27" vertex="1">
          <mxGeometry x="246" width="47" height="30" as="geometry">
            <mxRectangle width="47" height="30" as="alternateBounds" />
          </mxGeometry>
        </mxCell>
        <mxCell id="QO13Kw1hg1u_ICl1bqHM-95" value="$$5$$" style="shape=partialRectangle;html=1;whiteSpace=wrap;connectable=0;strokeColor=inherit;overflow=hidden;fillColor=none;top=0;left=0;bottom=0;right=0;pointerEvents=1;" parent="QO13Kw1hg1u_ICl1bqHM-27" vertex="1">
          <mxGeometry x="293" width="47" height="30" as="geometry">
            <mxRectangle width="47" height="30" as="alternateBounds" />
          </mxGeometry>
        </mxCell>
        <mxCell id="QO13Kw1hg1u_ICl1bqHM-35" value="" style="shape=tableRow;horizontal=0;startSize=0;swimlaneHead=0;swimlaneBody=0;strokeColor=inherit;top=0;left=0;bottom=0;right=0;collapsible=0;dropTarget=0;fillColor=none;points=[[0,0.5],[1,0.5]];portConstraint=eastwest;" parent="QO13Kw1hg1u_ICl1bqHM-10" vertex="1">
          <mxGeometry y="95" width="340" height="41" as="geometry" />
        </mxCell>
        <mxCell id="QO13Kw1hg1u_ICl1bqHM-36" value="cache" style="shape=partialRectangle;html=1;whiteSpace=wrap;connectable=0;strokeColor=inherit;overflow=hidden;fillColor=none;top=0;left=0;bottom=0;right=0;pointerEvents=1;" parent="QO13Kw1hg1u_ICl1bqHM-35" vertex="1">
          <mxGeometry width="44" height="41" as="geometry">
            <mxRectangle width="44" height="41" as="alternateBounds" />
          </mxGeometry>
        </mxCell>
        <mxCell id="QO13Kw1hg1u_ICl1bqHM-37" value="$$[20]$$" style="shape=partialRectangle;html=1;whiteSpace=wrap;connectable=0;strokeColor=inherit;overflow=hidden;fillColor=none;top=0;left=0;bottom=0;right=0;pointerEvents=1;" parent="QO13Kw1hg1u_ICl1bqHM-35" vertex="1">
          <mxGeometry x="44" width="41" height="41" as="geometry">
            <mxRectangle width="41" height="41" as="alternateBounds" />
          </mxGeometry>
        </mxCell>
        <mxCell id="QO13Kw1hg1u_ICl1bqHM-38" value="$${\small [20,32]} $$" style="shape=partialRectangle;html=1;whiteSpace=wrap;connectable=0;strokeColor=inherit;overflow=hidden;fillColor=none;top=0;left=0;bottom=0;right=0;pointerEvents=1;" parent="QO13Kw1hg1u_ICl1bqHM-35" vertex="1">
          <mxGeometry x="85" width="38" height="41" as="geometry">
            <mxRectangle width="38" height="41" as="alternateBounds" />
          </mxGeometry>
        </mxCell>
        <mxCell id="QO13Kw1hg1u_ICl1bqHM-39" value="$${\scriptsize \begin{align}&amp;nbsp; &amp;amp;[20,32, \\&amp;amp;26]\end{align}}$$" style="shape=partialRectangle;html=1;whiteSpace=wrap;connectable=0;strokeColor=inherit;overflow=hidden;fillColor=none;top=0;left=0;bottom=0;right=0;pointerEvents=1;" parent="QO13Kw1hg1u_ICl1bqHM-35" vertex="1">
          <mxGeometry x="123" width="38" height="41" as="geometry">
            <mxRectangle width="38" height="41" as="alternateBounds" />
          </mxGeometry>
        </mxCell>
        <mxCell id="QO13Kw1hg1u_ICl1bqHM-40" value="&lt;div style=&quot;text-align: justify;&quot;&gt;$${\scriptsize \begin{align}&amp;nbsp; &amp;amp;[20,32, \\&amp;amp;26,36]\end{align}}&amp;nbsp;$$&lt;/div&gt;" style="shape=partialRectangle;html=1;whiteSpace=wrap;connectable=0;strokeColor=inherit;overflow=hidden;fillColor=none;top=0;left=0;bottom=0;right=0;pointerEvents=1;" parent="QO13Kw1hg1u_ICl1bqHM-35" vertex="1">
          <mxGeometry x="161" width="38" height="41" as="geometry">
            <mxRectangle width="38" height="41" as="alternateBounds" />
          </mxGeometry>
        </mxCell>
        <mxCell id="QO13Kw1hg1u_ICl1bqHM-41" value="$${\scriptsize&amp;nbsp; \begin{align}&amp;amp;[20,32,26, \\&amp;amp;28,10]\end{align}}$$" style="shape=partialRectangle;html=1;whiteSpace=wrap;connectable=0;strokeColor=inherit;overflow=hidden;fillColor=none;top=0;left=0;bottom=0;right=0;pointerEvents=1;" parent="QO13Kw1hg1u_ICl1bqHM-35" vertex="1">
          <mxGeometry x="199" width="47" height="41" as="geometry">
            <mxRectangle width="47" height="41" as="alternateBounds" />
          </mxGeometry>
        </mxCell>
        <mxCell id="QO13Kw1hg1u_ICl1bqHM-42" value="$${\scriptsize&amp;nbsp; \begin{align}&amp;amp;[32,26,28, \\&amp;amp;10,11]\end{align}}$$" style="shape=partialRectangle;html=1;whiteSpace=wrap;connectable=0;strokeColor=inherit;overflow=hidden;fillColor=none;top=0;left=0;bottom=0;right=0;pointerEvents=1;" parent="QO13Kw1hg1u_ICl1bqHM-35" vertex="1">
          <mxGeometry x="246" width="47" height="41" as="geometry">
            <mxRectangle width="47" height="41" as="alternateBounds" />
          </mxGeometry>
        </mxCell>
        <mxCell id="QO13Kw1hg1u_ICl1bqHM-96" value="$${\scriptsize&amp;nbsp; \begin{align}&amp;amp;[26,28,10, \\&amp;amp;11,5]\end{align}}$$" style="shape=partialRectangle;html=1;whiteSpace=wrap;connectable=0;strokeColor=inherit;overflow=hidden;fillColor=none;top=0;left=0;bottom=0;right=0;pointerEvents=1;" parent="QO13Kw1hg1u_ICl1bqHM-35" vertex="1">
          <mxGeometry x="293" width="47" height="41" as="geometry">
            <mxRectangle width="47" height="41" as="alternateBounds" />
          </mxGeometry>
        </mxCell>
        <mxCell id="QO13Kw1hg1u_ICl1bqHM-43" value="" style="shape=tableRow;horizontal=0;startSize=0;swimlaneHead=0;swimlaneBody=0;strokeColor=inherit;top=0;left=0;bottom=0;right=0;collapsible=0;dropTarget=0;fillColor=none;points=[[0,0.5],[1,0.5]];portConstraint=eastwest;" parent="QO13Kw1hg1u_ICl1bqHM-10" vertex="1">
          <mxGeometry y="136" width="340" height="40" as="geometry" />
        </mxCell>
        <mxCell id="QO13Kw1hg1u_ICl1bqHM-44" value="output&lt;div&gt;`t_{pe}[i]`&lt;/div&gt;" style="shape=partialRectangle;html=1;whiteSpace=wrap;connectable=0;strokeColor=inherit;overflow=hidden;fillColor=none;top=0;left=0;bottom=0;right=0;pointerEvents=1;" parent="QO13Kw1hg1u_ICl1bqHM-43" vertex="1">
          <mxGeometry width="44" height="40" as="geometry">
            <mxRectangle width="44" height="40" as="alternateBounds" />
          </mxGeometry>
        </mxCell>
        <mxCell id="QO13Kw1hg1u_ICl1bqHM-45" value="" style="shape=partialRectangle;html=1;whiteSpace=wrap;connectable=0;strokeColor=inherit;overflow=hidden;fillColor=none;top=0;left=0;bottom=0;right=0;pointerEvents=1;" parent="QO13Kw1hg1u_ICl1bqHM-43" vertex="1">
          <mxGeometry x="44" width="41" height="40" as="geometry">
            <mxRectangle width="41" height="40" as="alternateBounds" />
          </mxGeometry>
        </mxCell>
        <mxCell id="QO13Kw1hg1u_ICl1bqHM-46" value="" style="shape=partialRectangle;html=1;whiteSpace=wrap;connectable=0;strokeColor=inherit;overflow=hidden;fillColor=none;top=0;left=0;bottom=0;right=0;pointerEvents=1;" parent="QO13Kw1hg1u_ICl1bqHM-43" vertex="1">
          <mxGeometry x="85" width="38" height="40" as="geometry">
            <mxRectangle width="38" height="40" as="alternateBounds" />
          </mxGeometry>
        </mxCell>
        <mxCell id="QO13Kw1hg1u_ICl1bqHM-47" value="" style="shape=partialRectangle;html=1;whiteSpace=wrap;connectable=0;strokeColor=inherit;overflow=hidden;fillColor=none;top=0;left=0;bottom=0;right=0;pointerEvents=1;" parent="QO13Kw1hg1u_ICl1bqHM-43" vertex="1">
          <mxGeometry x="123" width="38" height="40" as="geometry">
            <mxRectangle width="38" height="40" as="alternateBounds" />
          </mxGeometry>
        </mxCell>
        <mxCell id="QO13Kw1hg1u_ICl1bqHM-48" value="" style="shape=partialRectangle;html=1;whiteSpace=wrap;connectable=0;strokeColor=inherit;overflow=hidden;fillColor=none;top=0;left=0;bottom=0;right=0;pointerEvents=1;" parent="QO13Kw1hg1u_ICl1bqHM-43" vertex="1">
          <mxGeometry x="161" width="38" height="40" as="geometry">
            <mxRectangle width="38" height="40" as="alternateBounds" />
          </mxGeometry>
        </mxCell>
        <mxCell id="QO13Kw1hg1u_ICl1bqHM-49" value="$$[2,5]$$" style="shape=partialRectangle;html=1;whiteSpace=wrap;connectable=0;strokeColor=inherit;overflow=hidden;fillColor=none;top=0;left=0;bottom=0;right=0;pointerEvents=1;" parent="QO13Kw1hg1u_ICl1bqHM-43" vertex="1">
          <mxGeometry x="199" width="47" height="40" as="geometry">
            <mxRectangle width="47" height="40" as="alternateBounds" />
          </mxGeometry>
        </mxCell>
        <mxCell id="QO13Kw1hg1u_ICl1bqHM-50" value="$$[2,6]$$" style="shape=partialRectangle;html=1;whiteSpace=wrap;connectable=0;strokeColor=inherit;overflow=hidden;fillColor=none;top=0;left=0;bottom=0;right=0;pointerEvents=1;" parent="QO13Kw1hg1u_ICl1bqHM-43" vertex="1">
          <mxGeometry x="246" width="47" height="40" as="geometry">
            <mxRectangle width="47" height="40" as="alternateBounds" />
          </mxGeometry>
        </mxCell>
        <mxCell id="QO13Kw1hg1u_ICl1bqHM-97" value="$${\scriptsize \begin{align}&amp;amp;[3,7] \\ &amp;amp;[4,7]\end{align}}&amp;nbsp;$$" style="shape=partialRectangle;html=1;whiteSpace=wrap;connectable=0;strokeColor=inherit;overflow=hidden;fillColor=none;top=0;left=0;bottom=0;right=0;pointerEvents=1;" parent="QO13Kw1hg1u_ICl1bqHM-43" vertex="1">
          <mxGeometry x="293" width="47" height="40" as="geometry">
            <mxRectangle width="47" height="40" as="alternateBounds" />
          </mxGeometry>
        </mxCell>
        <mxCell id="QO13Kw1hg1u_ICl1bqHM-98" value="" style="shape=table;startSize=0;container=1;collapsible=0;childLayout=tableLayout;" parent="1" vertex="1">
          <mxGeometry x="464" y="226" width="270.9" height="350.5238095238094" as="geometry" />
        </mxCell>
        <mxCell id="QO13Kw1hg1u_ICl1bqHM-99" value="" style="shape=tableRow;horizontal=0;startSize=0;swimlaneHead=0;swimlaneBody=0;strokeColor=inherit;top=0;left=0;bottom=0;right=0;collapsible=0;dropTarget=0;fillColor=none;points=[[0,0.5],[1,0.5]];portConstraint=eastwest;" parent="QO13Kw1hg1u_ICl1bqHM-98" vertex="1">
          <mxGeometry width="270.9" height="32" as="geometry" />
        </mxCell>
        <mxCell id="QO13Kw1hg1u_ICl1bqHM-100" value="" style="shape=partialRectangle;html=1;whiteSpace=wrap;connectable=0;strokeColor=inherit;overflow=hidden;fillColor=none;top=0;left=0;bottom=0;right=0;pointerEvents=1;" parent="QO13Kw1hg1u_ICl1bqHM-99" vertex="1">
          <mxGeometry width="35" height="32" as="geometry">
            <mxRectangle width="35" height="32" as="alternateBounds" />
          </mxGeometry>
        </mxCell>
        <mxCell id="QO13Kw1hg1u_ICl1bqHM-101" value="$$NFA$$" style="shape=partialRectangle;html=1;whiteSpace=wrap;connectable=0;strokeColor=inherit;overflow=hidden;fillColor=none;top=0;left=0;bottom=0;right=0;pointerEvents=1;" parent="QO13Kw1hg1u_ICl1bqHM-99" vertex="1">
          <mxGeometry x="35" width="179" height="32" as="geometry">
            <mxRectangle width="179" height="32" as="alternateBounds" />
          </mxGeometry>
        </mxCell>
        <mxCell id="QO13Kw1hg1u_ICl1bqHM-102" value="输出结果" style="shape=partialRectangle;html=1;whiteSpace=wrap;connectable=0;strokeColor=inherit;overflow=hidden;fillColor=none;top=0;left=0;bottom=0;right=0;pointerEvents=1;" parent="QO13Kw1hg1u_ICl1bqHM-99" vertex="1">
          <mxGeometry x="214" width="57" height="32" as="geometry">
            <mxRectangle width="57" height="32" as="alternateBounds" />
          </mxGeometry>
        </mxCell>
        <mxCell id="QO13Kw1hg1u_ICl1bqHM-103" value="" style="shape=tableRow;horizontal=0;startSize=0;swimlaneHead=0;swimlaneBody=0;strokeColor=inherit;top=0;left=0;bottom=0;right=0;collapsible=0;dropTarget=0;fillColor=none;points=[[0,0.5],[1,0.5]];portConstraint=eastwest;" parent="QO13Kw1hg1u_ICl1bqHM-98" vertex="1">
          <mxGeometry y="32" width="270.9" height="33" as="geometry" />
        </mxCell>
        <mxCell id="QO13Kw1hg1u_ICl1bqHM-104" value="$$t_1$$" style="shape=partialRectangle;html=1;whiteSpace=wrap;connectable=0;strokeColor=inherit;overflow=hidden;fillColor=none;top=0;left=0;bottom=0;right=0;pointerEvents=1;" parent="QO13Kw1hg1u_ICl1bqHM-103" vertex="1">
          <mxGeometry width="35" height="33" as="geometry">
            <mxRectangle width="35" height="33" as="alternateBounds" />
          </mxGeometry>
        </mxCell>
        <mxCell id="QO13Kw1hg1u_ICl1bqHM-105" value="$$(t_1,-)$$" style="shape=partialRectangle;html=1;whiteSpace=wrap;connectable=0;strokeColor=inherit;overflow=hidden;fillColor=none;top=0;left=0;bottom=0;right=0;pointerEvents=1;" parent="QO13Kw1hg1u_ICl1bqHM-103" vertex="1">
          <mxGeometry x="35" width="179" height="33" as="geometry">
            <mxRectangle width="179" height="33" as="alternateBounds" />
          </mxGeometry>
        </mxCell>
        <mxCell id="QO13Kw1hg1u_ICl1bqHM-106" value="" style="shape=partialRectangle;html=1;whiteSpace=wrap;connectable=0;strokeColor=inherit;overflow=hidden;fillColor=none;top=0;left=0;bottom=0;right=0;pointerEvents=1;" parent="QO13Kw1hg1u_ICl1bqHM-103" vertex="1">
          <mxGeometry x="214" width="57" height="33" as="geometry">
            <mxRectangle width="57" height="33" as="alternateBounds" />
          </mxGeometry>
        </mxCell>
        <mxCell id="QO13Kw1hg1u_ICl1bqHM-107" value="" style="shape=tableRow;horizontal=0;startSize=0;swimlaneHead=0;swimlaneBody=0;strokeColor=inherit;top=0;left=0;bottom=0;right=0;collapsible=0;dropTarget=0;fillColor=none;points=[[0,0.5],[1,0.5]];portConstraint=eastwest;" parent="QO13Kw1hg1u_ICl1bqHM-98" vertex="1">
          <mxGeometry y="65" width="270.9" height="34" as="geometry" />
        </mxCell>
        <mxCell id="QO13Kw1hg1u_ICl1bqHM-108" value="$$t_2$$" style="shape=partialRectangle;html=1;whiteSpace=wrap;connectable=0;strokeColor=inherit;overflow=hidden;fillColor=none;top=0;left=0;bottom=0;right=0;pointerEvents=1;" parent="QO13Kw1hg1u_ICl1bqHM-107" vertex="1">
          <mxGeometry width="35" height="34" as="geometry">
            <mxRectangle width="35" height="34" as="alternateBounds" />
          </mxGeometry>
        </mxCell>
        <mxCell id="QO13Kw1hg1u_ICl1bqHM-109" value="\begin{align}&amp;amp;(t_1,t_2,-) \ (t_2,-)\end{align}" style="shape=partialRectangle;html=1;whiteSpace=wrap;connectable=0;strokeColor=inherit;overflow=hidden;fillColor=none;top=0;left=0;bottom=0;right=0;pointerEvents=1;" parent="QO13Kw1hg1u_ICl1bqHM-107" vertex="1">
          <mxGeometry x="35" width="179" height="34" as="geometry">
            <mxRectangle width="179" height="34" as="alternateBounds" />
          </mxGeometry>
        </mxCell>
        <mxCell id="QO13Kw1hg1u_ICl1bqHM-110" value="" style="shape=partialRectangle;html=1;whiteSpace=wrap;connectable=0;strokeColor=inherit;overflow=hidden;fillColor=none;top=0;left=0;bottom=0;right=0;pointerEvents=1;" parent="QO13Kw1hg1u_ICl1bqHM-107" vertex="1">
          <mxGeometry x="214" width="57" height="34" as="geometry">
            <mxRectangle width="57" height="34" as="alternateBounds" />
          </mxGeometry>
        </mxCell>
        <mxCell id="QO13Kw1hg1u_ICl1bqHM-111" value="" style="shape=tableRow;horizontal=0;startSize=0;swimlaneHead=0;swimlaneBody=0;strokeColor=inherit;top=0;left=0;bottom=0;right=0;collapsible=0;dropTarget=0;fillColor=none;points=[[0,0.5],[1,0.5]];portConstraint=eastwest;" parent="QO13Kw1hg1u_ICl1bqHM-98" vertex="1">
          <mxGeometry y="99" width="270.9" height="53" as="geometry" />
        </mxCell>
        <mxCell id="QO13Kw1hg1u_ICl1bqHM-112" value="$$t_3$$" style="shape=partialRectangle;html=1;whiteSpace=wrap;connectable=0;strokeColor=inherit;overflow=hidden;fillColor=none;top=0;left=0;bottom=0;right=0;pointerEvents=1;" parent="QO13Kw1hg1u_ICl1bqHM-111" vertex="1">
          <mxGeometry width="35" height="53" as="geometry">
            <mxRectangle width="35" height="53" as="alternateBounds" />
          </mxGeometry>
        </mxCell>
        <mxCell id="QO13Kw1hg1u_ICl1bqHM-113" value="\begin{align}&amp;amp;(t_1,t_2,t_3,-)\ (t_2,t_3,-) \\&amp;amp;(t_3,-)\end{align}" style="shape=partialRectangle;html=1;whiteSpace=wrap;connectable=0;strokeColor=inherit;overflow=hidden;fillColor=none;top=0;left=0;bottom=0;right=0;pointerEvents=1;" parent="QO13Kw1hg1u_ICl1bqHM-111" vertex="1">
          <mxGeometry x="35" width="179" height="53" as="geometry">
            <mxRectangle width="179" height="53" as="alternateBounds" />
          </mxGeometry>
        </mxCell>
        <mxCell id="QO13Kw1hg1u_ICl1bqHM-114" value="" style="shape=partialRectangle;html=1;whiteSpace=wrap;connectable=0;strokeColor=inherit;overflow=hidden;fillColor=none;top=0;left=0;bottom=0;right=0;pointerEvents=1;" parent="QO13Kw1hg1u_ICl1bqHM-111" vertex="1">
          <mxGeometry x="214" width="57" height="53" as="geometry">
            <mxRectangle width="57" height="53" as="alternateBounds" />
          </mxGeometry>
        </mxCell>
        <mxCell id="QO13Kw1hg1u_ICl1bqHM-115" value="" style="shape=tableRow;horizontal=0;startSize=0;swimlaneHead=0;swimlaneBody=0;strokeColor=inherit;top=0;left=0;bottom=0;right=0;collapsible=0;dropTarget=0;fillColor=none;points=[[0,0.5],[1,0.5]];portConstraint=eastwest;" parent="QO13Kw1hg1u_ICl1bqHM-98" vertex="1">
          <mxGeometry y="152" width="270.9" height="52" as="geometry" />
        </mxCell>
        <mxCell id="QO13Kw1hg1u_ICl1bqHM-116" value="$$t_4$$" style="shape=partialRectangle;html=1;whiteSpace=wrap;connectable=0;strokeColor=inherit;overflow=hidden;fillColor=none;top=0;left=0;bottom=0;right=0;pointerEvents=1;" parent="QO13Kw1hg1u_ICl1bqHM-115" vertex="1">
          <mxGeometry width="35" height="52" as="geometry">
            <mxRectangle width="35" height="52" as="alternateBounds" />
          </mxGeometry>
        </mxCell>
        <mxCell id="QO13Kw1hg1u_ICl1bqHM-117" value="$$\begin{align}&amp;amp;(t_1,t_2,t_3,t_4,-)\ (t_2,t_3,t_4,-) \\&amp;amp;(t_3,t_4,-)\ (t_4,-)\end{align}$$" style="shape=partialRectangle;html=1;whiteSpace=wrap;connectable=0;strokeColor=inherit;overflow=hidden;fillColor=none;top=0;left=0;bottom=0;right=0;pointerEvents=1;" parent="QO13Kw1hg1u_ICl1bqHM-115" vertex="1">
          <mxGeometry x="35" width="179" height="52" as="geometry">
            <mxRectangle width="179" height="52" as="alternateBounds" />
          </mxGeometry>
        </mxCell>
        <mxCell id="QO13Kw1hg1u_ICl1bqHM-118" value="" style="shape=partialRectangle;html=1;whiteSpace=wrap;connectable=0;strokeColor=inherit;overflow=hidden;fillColor=none;top=0;left=0;bottom=0;right=0;pointerEvents=1;" parent="QO13Kw1hg1u_ICl1bqHM-115" vertex="1">
          <mxGeometry x="214" width="57" height="52" as="geometry">
            <mxRectangle width="57" height="52" as="alternateBounds" />
          </mxGeometry>
        </mxCell>
        <mxCell id="QO13Kw1hg1u_ICl1bqHM-119" value="" style="shape=tableRow;horizontal=0;startSize=0;swimlaneHead=0;swimlaneBody=0;strokeColor=inherit;top=0;left=0;bottom=0;right=0;collapsible=0;dropTarget=0;fillColor=none;points=[[0,0.5],[1,0.5]];portConstraint=eastwest;" parent="QO13Kw1hg1u_ICl1bqHM-98" vertex="1">
          <mxGeometry y="204" width="270.9" height="48" as="geometry" />
        </mxCell>
        <mxCell id="QO13Kw1hg1u_ICl1bqHM-120" value="$$t_5$$" style="shape=partialRectangle;html=1;whiteSpace=wrap;connectable=0;strokeColor=inherit;overflow=hidden;fillColor=none;top=0;left=0;bottom=0;right=0;pointerEvents=1;" parent="QO13Kw1hg1u_ICl1bqHM-119" vertex="1">
          <mxGeometry width="35" height="48" as="geometry">
            <mxRectangle width="35" height="48" as="alternateBounds" />
          </mxGeometry>
        </mxCell>
        <mxCell id="QO13Kw1hg1u_ICl1bqHM-121" value="$${\small \begin{align}&amp;amp;(t_1,t_2,t_3,t_4,t_5,-)(t_2,t_3,t_4,t_5,-)\\&amp;amp;(t_3,t_4,t_5,-)\ (t_4,t_5,-)\ (t_5,-)\end{align}} $$" style="shape=partialRectangle;html=1;whiteSpace=wrap;connectable=0;strokeColor=inherit;overflow=hidden;fillColor=none;top=0;left=0;bottom=0;right=0;pointerEvents=1;" parent="QO13Kw1hg1u_ICl1bqHM-119" vertex="1">
          <mxGeometry x="35" width="179" height="48" as="geometry">
            <mxRectangle width="179" height="48" as="alternateBounds" />
          </mxGeometry>
        </mxCell>
        <mxCell id="QO13Kw1hg1u_ICl1bqHM-122" value="$$[t_2,t_5]$$" style="shape=partialRectangle;html=1;whiteSpace=wrap;connectable=0;strokeColor=inherit;overflow=hidden;fillColor=none;top=0;left=0;bottom=0;right=0;pointerEvents=1;" parent="QO13Kw1hg1u_ICl1bqHM-119" vertex="1">
          <mxGeometry x="214" width="57" height="48" as="geometry">
            <mxRectangle width="57" height="48" as="alternateBounds" />
          </mxGeometry>
        </mxCell>
        <mxCell id="QO13Kw1hg1u_ICl1bqHM-123" value="" style="shape=tableRow;horizontal=0;startSize=0;swimlaneHead=0;swimlaneBody=0;strokeColor=inherit;top=0;left=0;bottom=0;right=0;collapsible=0;dropTarget=0;fillColor=none;points=[[0,0.5],[1,0.5]];portConstraint=eastwest;" parent="QO13Kw1hg1u_ICl1bqHM-98" vertex="1">
          <mxGeometry y="252" width="270.9" height="47" as="geometry" />
        </mxCell>
        <mxCell id="QO13Kw1hg1u_ICl1bqHM-124" value="$$t_6$$" style="shape=partialRectangle;html=1;whiteSpace=wrap;connectable=0;strokeColor=inherit;overflow=hidden;fillColor=none;top=0;left=0;bottom=0;right=0;pointerEvents=1;" parent="QO13Kw1hg1u_ICl1bqHM-123" vertex="1">
          <mxGeometry width="35" height="47" as="geometry">
            <mxRectangle width="35" height="47" as="alternateBounds" />
          </mxGeometry>
        </mxCell>
        <mxCell id="QO13Kw1hg1u_ICl1bqHM-125" value="$${\small \begin{align}&amp;amp;(t_2,t_3,t_4,t_5,t_6,-)(t_3,t_4,t_5,t_6,-)\\&amp;amp;(t_4,t_5,t_6,-)\ (t_5,t_6,-)\ (t_6,-)\end{align}}&amp;nbsp;$$" style="shape=partialRectangle;html=1;whiteSpace=wrap;connectable=0;strokeColor=inherit;overflow=hidden;fillColor=none;top=0;left=0;bottom=0;right=0;pointerEvents=1;" parent="QO13Kw1hg1u_ICl1bqHM-123" vertex="1">
          <mxGeometry x="35" width="179" height="47" as="geometry">
            <mxRectangle width="179" height="47" as="alternateBounds" />
          </mxGeometry>
        </mxCell>
        <mxCell id="QO13Kw1hg1u_ICl1bqHM-126" value="$$[t_2,t_6]$$" style="shape=partialRectangle;html=1;whiteSpace=wrap;connectable=0;strokeColor=inherit;overflow=hidden;fillColor=none;top=0;left=0;bottom=0;right=0;pointerEvents=1;" parent="QO13Kw1hg1u_ICl1bqHM-123" vertex="1">
          <mxGeometry x="214" width="57" height="47" as="geometry">
            <mxRectangle width="57" height="47" as="alternateBounds" />
          </mxGeometry>
        </mxCell>
        <mxCell id="QO13Kw1hg1u_ICl1bqHM-127" value="" style="shape=tableRow;horizontal=0;startSize=0;swimlaneHead=0;swimlaneBody=0;strokeColor=inherit;top=0;left=0;bottom=0;right=0;collapsible=0;dropTarget=0;fillColor=none;points=[[0,0.5],[1,0.5]];portConstraint=eastwest;" parent="QO13Kw1hg1u_ICl1bqHM-98" vertex="1">
          <mxGeometry y="299" width="270.9" height="52" as="geometry" />
        </mxCell>
        <mxCell id="QO13Kw1hg1u_ICl1bqHM-128" value="$$t_7$$" style="shape=partialRectangle;html=1;whiteSpace=wrap;connectable=0;strokeColor=inherit;overflow=hidden;fillColor=none;top=0;left=0;bottom=0;right=0;pointerEvents=1;" parent="QO13Kw1hg1u_ICl1bqHM-127" vertex="1">
          <mxGeometry width="35" height="52" as="geometry">
            <mxRectangle width="35" height="52" as="alternateBounds" />
          </mxGeometry>
        </mxCell>
        <mxCell id="QO13Kw1hg1u_ICl1bqHM-129" value="$${\small \begin{align}&amp;amp;(t_3,t_4,t_5,t_6,t_7,-)\ (t_4,t_5,t_6,t_7,-)\\&amp;amp;(t_5,t_6,t_7,-)\ (t_6,t_7,-)\ (t_7,-)\end{align}}&amp;nbsp;$$" style="shape=partialRectangle;html=1;whiteSpace=wrap;connectable=0;strokeColor=inherit;overflow=hidden;fillColor=none;top=0;left=0;bottom=0;right=0;pointerEvents=1;" parent="QO13Kw1hg1u_ICl1bqHM-127" vertex="1">
          <mxGeometry x="35" width="179" height="52" as="geometry">
            <mxRectangle width="179" height="52" as="alternateBounds" />
          </mxGeometry>
        </mxCell>
        <mxCell id="QO13Kw1hg1u_ICl1bqHM-130" value="\begin{align}&amp;amp;[t_3,t_7] \\ &amp;amp;[t_4,t_7]\end{align}" style="shape=partialRectangle;html=1;whiteSpace=wrap;connectable=0;strokeColor=inherit;overflow=hidden;fillColor=none;top=0;left=0;bottom=0;right=0;pointerEvents=1;" parent="QO13Kw1hg1u_ICl1bqHM-127" vertex="1">
          <mxGeometry x="214" width="57" height="52" as="geometry">
            <mxRectangle width="57" height="52" as="alternateBounds" />
          </mxGeometry>
        </mxCell>
        <mxCell id="QO13Kw1hg1u_ICl1bqHM-143" value="A" style="ellipse;whiteSpace=wrap;html=1;aspect=fixed;" parent="1" vertex="1">
          <mxGeometry x="210.13" y="540.53" width="39.52" height="39.52" as="geometry" />
        </mxCell>
        <mxCell id="QO13Kw1hg1u_ICl1bqHM-144" style="edgeStyle=orthogonalEdgeStyle;rounded=0;orthogonalLoop=1;jettySize=auto;html=1;exitX=0;exitY=0;exitDx=0;exitDy=0;entryX=1;entryY=0;entryDx=0;entryDy=0;curved=1;endArrow=block;endFill=1;" parent="1" source="QO13Kw1hg1u_ICl1bqHM-143" target="QO13Kw1hg1u_ICl1bqHM-143" edge="1">
          <mxGeometry relative="1" as="geometry">
            <Array as="points">
              <mxPoint x="216.13" y="525.0500000000001" />
              <mxPoint x="244.13" y="525.0500000000001" />
            </Array>
          </mxGeometry>
        </mxCell>
        <mxCell id="QO13Kw1hg1u_ICl1bqHM-145" value="`t_{pe}`" style="edgeLabel;html=1;align=center;verticalAlign=middle;resizable=0;points=[];" parent="QO13Kw1hg1u_ICl1bqHM-144" vertex="1" connectable="0">
          <mxGeometry x="0.0196" relative="1" as="geometry">
            <mxPoint y="-8" as="offset" />
          </mxGeometry>
        </mxCell>
        <mxCell id="QO13Kw1hg1u_ICl1bqHM-146" value="&lt;span style=&quot;font-size: 11px;&quot;&gt;`E_{c}`&lt;/span&gt;" style="text;html=1;align=center;verticalAlign=middle;resizable=0;points=[];autosize=1;strokeColor=none;fillColor=none;" parent="1" vertex="1">
          <mxGeometry x="244" y="539.58" width="52" height="26" as="geometry" />
        </mxCell>
        <mxCell id="QO13Kw1hg1u_ICl1bqHM-150" style="edgeStyle=orthogonalEdgeStyle;rounded=0;orthogonalLoop=1;jettySize=auto;html=1;entryX=0;entryY=0.5;entryDx=0;entryDy=0;endArrow=block;endFill=1;" parent="1" edge="1">
          <mxGeometry relative="1" as="geometry">
            <mxPoint x="198.1" y="559.28" as="sourcePoint" />
            <mxPoint x="210.1000000000033" y="559.54" as="targetPoint" />
          </mxGeometry>
        </mxCell>
      </root>
    </mxGraphModel>
  </diagram>
</mxfile>
